<svg xmlns="http://www.w3.org/2000/svg"  viewBox="0 0 80 80" width="80px" height="80px"><path d="M 22 10 C 19.792969 10 18 11.792969 18 14 L 18 58 C 18 60.207031 19.792969 62 22 62 L 66 62 C 68.207031 62 70 60.207031 70 58 L 70 24.363281 L 68 26.363281 L 68 58 C 68 59.101563 67.101563 60 66 60 L 22 60 C 20.898438 60 20 59.101563 20 58 L 20 14 C 20 12.898438 20.898438 12 22 12 L 66 12 C 66.988281 12 67.808594 12.726563 67.96875 13.671875 L 69.511719 12.125 C 68.835938 10.867188 67.523438 10 66 10 Z M 70.4375 15.4375 L 41.9375 43.941406 L 32.5625 34.570313 L 30.4375 36.691406 L 41.9375 48.1875 L 72.5625 17.5625 Z M 26 17 C 25.449219 17 25 17.449219 25 18 C 25 18.550781 25.449219 19 26 19 C 26.550781 19 27 18.550781 27 18 C 27 17.449219 26.550781 17 26 17 Z M 30 17 C 29.449219 17 29 17.449219 29 18 C 29 18.550781 29.449219 19 30 19 C 30.550781 19 31 18.550781 31 18 C 31 17.449219 30.550781 17 30 17 Z M 34 17 C 33.449219 17 33 17.449219 33 18 C 33 18.550781 33.449219 19 34 19 C 34.550781 19 35 18.550781 35 18 C 35 17.449219 34.550781 17 34 17 Z M 38 17 C 37.449219 17 37 17.449219 37 18 C 37 18.550781 37.449219 19 38 19 C 38.550781 19 39 18.550781 39 18 C 39 17.449219 38.550781 17 38 17 Z M 42 17 C 41.449219 17 41 17.449219 41 18 C 41 18.550781 41.449219 19 42 19 C 42.550781 19 43 18.550781 43 18 C 43 17.449219 42.550781 17 42 17 Z M 46 17 C 45.449219 17 45 17.449219 45 18 C 45 18.550781 45.449219 19 46 19 C 46.550781 19 47 18.550781 47 18 C 47 17.449219 46.550781 17 46 17 Z M 50 17 C 49.449219 17 49 17.449219 49 18 C 49 18.550781 49.449219 19 50 19 C 50.550781 19 51 18.550781 51 18 C 51 17.449219 50.550781 17 50 17 Z M 54 17 C 53.449219 17 53 17.449219 53 18 C 53 18.550781 53.449219 19 54 19 C 54.550781 19 55 18.550781 55 18 C 55 17.449219 54.550781 17 54 17 Z M 58 17 C 57.449219 17 57 17.449219 57 18 C 57 18.550781 57.449219 19 58 19 C 58.550781 19 59 18.550781 59 18 C 59 17.449219 58.550781 17 58 17 Z M 62 17 C 61.449219 17 61 17.449219 61 18 C 61 18.550781 61.449219 19 62 19 C 62.550781 19 63 18.550781 63 18 C 63 17.449219 62.550781 17 62 17 Z M 14 18 C 11.800781 18 10 19.800781 10 22 L 10 66 C 10 68.199219 11.800781 70 14 70 L 58 70 C 60.199219 70 62 68.199219 62 66 L 62 64 L 60 64 L 60 66 C 60 67.117188 59.117188 68 58 68 L 14 68 C 12.882813 68 12 67.117188 12 66 L 12 22 C 12 20.882813 12.882813 20 14 20 L 16 20 L 16 18 Z M 26 21 C 25.449219 21 25 21.449219 25 22 C 25 22.550781 25.449219 23 26 23 C 26.550781 23 27 22.550781 27 22 C 27 21.449219 26.550781 21 26 21 Z M 26 25 C 25.449219 25 25 25.449219 25 26 C 25 26.550781 25.449219 27 26 27 C 26.550781 27 27 26.550781 27 26 C 27 25.449219 26.550781 25 26 25 Z M 26 29 C 25.449219 29 25 29.449219 25 30 C 25 30.550781 25.449219 31 26 31 C 26.550781 31 27 30.550781 27 30 C 27 29.449219 26.550781 29 26 29 Z M 26 33 C 25.449219 33 25 33.449219 25 34 C 25 34.550781 25.449219 35 26 35 C 26.550781 35 27 34.550781 27 34 C 27 33.449219 26.550781 33 26 33 Z M 62 33 C 61.449219 33 61 33.449219 61 34 C 61 34.550781 61.449219 35 62 35 C 62.550781 35 63 34.550781 63 34 C 63 33.449219 62.550781 33 62 33 Z M 26 37 C 25.449219 37 25 37.449219 25 38 C 25 38.550781 25.449219 39 26 39 C 26.550781 39 27 38.550781 27 38 C 27 37.449219 26.550781 37 26 37 Z M 62 37 C 61.449219 37 61 37.449219 61 38 C 61 38.550781 61.449219 39 62 39 C 62.550781 39 63 38.550781 63 38 C 63 37.449219 62.550781 37 62 37 Z M 26 41 C 25.449219 41 25 41.449219 25 42 C 25 42.550781 25.449219 43 26 43 C 26.550781 43 27 42.550781 27 42 C 27 41.449219 26.550781 41 26 41 Z M 62 41 C 61.449219 41 61 41.449219 61 42 C 61 42.550781 61.449219 43 62 43 C 62.550781 43 63 42.550781 63 42 C 63 41.449219 62.550781 41 62 41 Z M 26 45 C 25.449219 45 25 45.449219 25 46 C 25 46.550781 25.449219 47 26 47 C 26.550781 47 27 46.550781 27 46 C 27 45.449219 26.550781 45 26 45 Z M 62 45 C 61.449219 45 61 45.449219 61 46 C 61 46.550781 61.449219 47 62 47 C 62.550781 47 63 46.550781 63 46 C 63 45.449219 62.550781 45 62 45 Z M 26 49 C 25.449219 49 25 49.449219 25 50 C 25 50.550781 25.449219 51 26 51 C 26.550781 51 27 50.550781 27 50 C 27 49.449219 26.550781 49 26 49 Z M 62 49 C 61.449219 49 61 49.449219 61 50 C 61 50.550781 61.449219 51 62 51 C 62.550781 51 63 50.550781 63 50 C 63 49.449219 62.550781 49 62 49 Z M 26 53 C 25.449219 53 25 53.449219 25 54 C 25 54.550781 25.449219 55 26 55 C 26.550781 55 27 54.550781 27 54 C 27 53.449219 26.550781 53 26 53 Z M 30 53 C 29.449219 53 29 53.449219 29 54 C 29 54.550781 29.449219 55 30 55 C 30.550781 55 31 54.550781 31 54 C 31 53.449219 30.550781 53 30 53 Z M 34 53 C 33.449219 53 33 53.449219 33 54 C 33 54.550781 33.449219 55 34 55 C 34.550781 55 35 54.550781 35 54 C 35 53.449219 34.550781 53 34 53 Z M 38 53 C 37.449219 53 37 53.449219 37 54 C 37 54.550781 37.449219 55 38 55 C 38.550781 55 39 54.550781 39 54 C 39 53.449219 38.550781 53 38 53 Z M 42 53 C 41.449219 53 41 53.449219 41 54 C 41 54.550781 41.449219 55 42 55 C 42.550781 55 43 54.550781 43 54 C 43 53.449219 42.550781 53 42 53 Z M 46 53 C 45.449219 53 45 53.449219 45 54 C 45 54.550781 45.449219 55 46 55 C 46.550781 55 47 54.550781 47 54 C 47 53.449219 46.550781 53 46 53 Z M 50 53 C 49.449219 53 49 53.449219 49 54 C 49 54.550781 49.449219 55 50 55 C 50.550781 55 51 54.550781 51 54 C 51 53.449219 50.550781 53 50 53 Z M 54 53 C 53.449219 53 53 53.449219 53 54 C 53 54.550781 53.449219 55 54 55 C 54.550781 55 55 54.550781 55 54 C 55 53.449219 54.550781 53 54 53 Z M 58 53 C 57.449219 53 57 53.449219 57 54 C 57 54.550781 57.449219 55 58 55 C 58.550781 55 59 54.550781 59 54 C 59 53.449219 58.550781 53 58 53 Z M 62 53 C 61.449219 53 61 53.449219 61 54 C 61 54.550781 61.449219 55 62 55 C 62.550781 55 63 54.550781 63 54 C 63 53.449219 62.550781 53 62 53 Z"/></svg>